<?xml version="1.0" encoding="iso-8859-1"?>
<!-- Generator: Adobe Illustrator 19.0.0, SVG Export Plug-In . SVG Version: 6.00 Build 0)  -->
<svg version="1.1" id="Capa_1" xmlns="http://www.w3.org/2000/svg" xmlns:xlink="http://www.w3.org/1999/xlink" x="0px" y="0px"
	 viewBox="0 0 434.6 434.6" style="enable-background:new 0 0 434.6 434.6;" xml:space="preserve">
<g>
	<g>
		<path d="M326.44,0.02H247.6c-1.91-0.003-3.68,1-4.66,2.64l-23.4,39.1c-0.513,0.851-0.783,1.826-0.779,2.819
			c0.011,2.993,2.446,5.411,5.439,5.401h44.92l-78.96,86.28l18.62-52.76c0.289-0.676,0.438-1.403,0.439-2.139
			c0.001-3.004-2.434-5.441-5.439-5.441H161.3L189.46,8c0.427-0.8,0.647-1.694,0.64-2.6c-0.022-3.004-2.476-5.422-5.48-5.4h-76.46
			C95.567,0.022,85.355,10.208,85.3,22.8v114c0.203,62.896,46.187,116.272,108.36,125.78v124.78h-39.52
			c-6.265-0.006-12.275,2.485-16.7,6.92c-4.428,4.429-6.915,10.434-6.916,16.696c-0.002,13.045,10.571,23.622,23.616,23.624h126.32
			c6.245-0.006,12.234-2.486,16.656-6.896c9.236-9.212,9.256-24.167,0.044-33.404c-4.417-4.438-10.419-6.935-16.68-6.94h-39.54
			V262.62c62.173-9.508,108.157-62.884,108.36-125.78v-114C349.256,10.24,339.041,0.042,326.44,0.02z M280.46,398.32
			c7.036,0,12.74,5.704,12.74,12.74c0,7.036-5.704,12.74-12.74,12.74H154.14c-3.369-0.005-6.599-1.343-8.983-3.723
			c-4.98-4.971-4.988-13.037-0.017-18.017c2.386-2.39,5.623-3.735,9-3.74h40.16c2.163,10.885,11.909,18.589,23,18.18
			c18.5,0,23-18.18,23-18.18L280.46,398.32z M204.44,392.88V263.72c2,0.12,6,0.24,8,0.24c2.4,0,7.2,0,9.6,0c2-0.02,6-0.12,8-0.24
			l-0.12,129.16c0,5.1-2.86,12.74-12.74,12.74c-0.094,0.001-0.188,0.001-0.282,0C209.94,405.542,204.362,399.838,204.44,392.88z
			 M338.38,136.8c-0.023,30.825-12.315,60.373-34.16,82.12c-21.515,22.189-51.215,34.544-82.12,34.16h-9.6
			c-33.7,0-63.96-15.98-82.18-34c-21.845-21.747-34.137-51.295-34.16-82.12v-114c0-6.627,5.373-12,12-12h68.3l-28.32,68.4
			c-0.263,0.647-0.398,1.34-0.399,2.039c-0.001,2.993,2.425,5.421,5.419,5.421h42.94l-25.06,70.86
			c-0.784,2.209-0.064,4.672,1.786,6.112c2.371,1.845,5.789,1.419,7.634-0.952L285.44,48.12c0.916-1,1.423-2.307,1.422-3.662
			c-0.001-2.993-2.429-5.419-5.422-5.418h-47.66l16.9-28.24h75.7c6.627,0,12,5.373,12,12V136.8z"/>
	</g>
</g>
<g>
</g>
<g>
</g>
<g>
</g>
<g>
</g>
<g>
</g>
<g>
</g>
<g>
</g>
<g>
</g>
<g>
</g>
<g>
</g>
<g>
</g>
<g>
</g>
<g>
</g>
<g>
</g>
<g>
</g>
</svg>
